/* XPM */
static char * bottom_active_xpm[] = {
"8 17 2 1",
" 	c None",
".	c #D5C4A1",
"........",
"        ",
"        ",
"        ",
"        ",
"        ",
"        ",
"        ",
"        ",
"        ",
"        ",
"        ",
"        ",
"        ",
"        ",
"        ",
"        "};
