/* XPM */
static char * bottom_inactive_xpm[] = {
"8 17 2 1",
" 	c None",
".	c #a89984",
"........",
"        ",
"        ",
"        ",
"        ",
"        ",
"        ",
"        ",
"        ",
"        ",
"        ",
"        ",
"        ",
"        ",
"        ",
"        ",
"        "};
