/* XPM */
static char * right_inactive_xpm[] = {
"17 21 2 1",
" 	c None",
".	c #a89984",
".                ",
".                ",
".                ",
".                ",
".                ",
".                ",
".                ",
".                ",
".                ",
".                ",
".                ",
".                ",
".                ",
".                ",
".                ",
".                ",
".                ",
".                ",
".                ",
".                ",
".                "};
