/* XPM */
static char * top_right_inactive_xpm[] = {
"18 42 4 1",
" 	c None",
".	c #a89984",
"+	c #1d2021",
"@	c #1d2021",
"                  ",
"                  ",
"                  ",
"                  ",
"                  ",
"                  ",
"                  ",
"                  ",
"                  ",
"                  ",
"                  ",
"                  ",
"                  ",
"                  ",
"                  ",
"                  ",
".                 ",
"+.                ",
"@.                ",
"@.                ",
"@.                ",
"@.                ",
"@.                ",
"@.                ",
"@.                ",
"@.                ",
"@.                ",
"@.                ",
"@.                ",
"@.                ",
"@.                ",
"@.                ",
"@.                ",
"@.                ",
"@.                ",
"@.                ",
"@.                ",
"@.                ",
"@.                ",
"@.                ",
"@.                ",
"@.                "};
